<svg width="45" height="45" viewBox="0 0 45 45" fill="none" xmlns="http://www.w3.org/2000/svg">
<g id="report">
<path id="Vector" d="M40.9037 2.99833L42.0007 4.09537C43.5124 5.60891 43.2837 8.29201 41.4857 10.0882L18.8625 32.7114L11.5327 35.3926C10.6124 35.7311 9.71612 35.2922 9.5339 34.4165C9.47252 34.0988 9.50151 33.7702 9.61758 33.4682L12.3509 26.0752L34.9109 3.51338C36.7089 1.71721 39.392 1.48478 40.9037 2.99833ZM17.8751 5.24819C18.1193 5.24819 18.3611 5.29628 18.5867 5.38973C18.8123 5.48317 19.0173 5.62013 19.1899 5.79279C19.3626 5.96545 19.4995 6.17043 19.593 6.39602C19.6864 6.62161 19.7345 6.8634 19.7345 7.10758C19.7345 7.35176 19.6864 7.59355 19.593 7.81914C19.4995 8.04473 19.3626 8.24971 19.1899 8.42237C19.0173 8.59503 18.8123 8.73199 18.5867 8.82544C18.3611 8.91888 18.1193 8.96697 17.8751 8.96697H10.4376C9.45128 8.96697 8.5054 9.35877 7.80799 10.0562C7.11058 10.7536 6.71878 11.6995 6.71878 12.6858V34.9985C6.71878 35.9847 7.11058 36.9306 7.80799 37.628C8.5054 38.3254 9.45128 38.7172 10.4376 38.7172H32.7503C33.7365 38.7172 34.6824 38.3254 35.3798 37.628C36.0773 36.9306 36.4691 35.9847 36.4691 34.9985V27.5609C36.4691 27.0677 36.665 26.5948 37.0137 26.2461C37.3624 25.8974 37.8353 25.7015 38.3284 25.7015C38.8216 25.7015 39.2945 25.8974 39.6432 26.2461C39.9919 26.5948 40.1878 27.0677 40.1878 27.5609V34.9985C40.1878 36.971 39.4042 38.8628 38.0094 40.2576C36.6146 41.6524 34.7228 42.436 32.7503 42.436H10.4376C8.465 42.436 6.57323 41.6524 5.17841 40.2576C3.7836 38.8628 3 36.971 3 34.9985V12.6858C3 10.7132 3.7836 8.82142 5.17841 7.4266C6.57323 6.03179 8.465 5.24819 10.4376 5.24819H17.8751Z" fill="#1E1E1E"/>
</g>
</svg>
